<svg xmlns="http://www.w3.org/2000/svg" width="32" height="32" viewBox="0 0 32 32">
    <g fill="none" fill-rule="evenodd">
        <circle cx="16" cy="16" r="16" fill="#202731"/>
        <path fill="#FFF" fill-rule="nonzero" d="M12.514 12.264c-.94 0-1.677.332-2.215.998-.538.665-.807 1.583-.807 2.755 0 1.226.259 2.153.776 2.782s1.266.943 2.246.943c.424 0 .834-.042 1.23-.126.397-.085.81-.193 1.237-.325v1.401c-.783.297-1.672.445-2.666.445-1.462 0-2.586-.443-3.37-1.33-.784-.886-1.175-2.154-1.175-3.804 0-1.04.19-1.948.57-2.728.38-.779.931-1.376 1.651-1.79.72-.415 1.566-.623 2.536-.623 1.021 0 1.965.214 2.83.643l-.587 1.36c-.338-.16-.694-.3-1.07-.42-.376-.12-.772-.181-1.186-.181zm4.62-1.258h2.968c1.376 0 2.37.2 2.983.601.613.401.92 1.035.92 1.9 0 .584-.15 1.07-.451 1.457-.301.387-.734.631-1.3.731v.069c.703.132 1.219.393 1.55.782.33.39.495.918.495 1.583 0 .898-.313 1.6-.94 2.109-.627.508-1.498.762-2.615.762h-3.61v-9.994zm1.635 4.129h1.572c.683 0 1.182-.108 1.497-.325.314-.216.472-.584.472-1.104 0-.47-.17-.809-.51-1.018-.34-.21-.878-.315-1.616-.315h-1.415v2.762zm0 1.326v3.165h1.736c.683 0 1.2-.131 1.548-.393.349-.262.523-.676.523-1.24 0-.52-.178-.905-.533-1.156-.356-.25-.896-.376-1.62-.376h-1.654z"/>
    </g>
</svg>
