<svg xmlns="http://www.w3.org/2000/svg" width="32" height="32" viewBox="0 0 32 32">
    <g fill="none" fill-rule="evenodd">
        <circle cx="16" cy="16" r="16" fill="#202731"/>
        <path fill="#FFF" fill-rule="nonzero" d="M17.135 12.264c-.939 0-1.677.332-2.215.998-.538.665-.807 1.583-.807 2.755 0 1.226.259 2.153.776 2.782s1.266.943 2.246.943c.424 0 .834-.042 1.23-.126.397-.085.81-.193 1.238-.325v1.401c-.784.297-1.673.445-2.666.445-1.463 0-2.587-.443-3.37-1.33-.784-.886-1.176-2.154-1.176-3.804 0-1.04.19-1.948.57-2.728.381-.779.931-1.376 1.651-1.79.72-.415 1.566-.623 2.536-.623 1.021 0 1.965.214 2.83.643l-.587 1.36c-.338-.16-.694-.3-1.07-.42-.376-.12-.772-.181-1.186-.181z"/>
    </g>
</svg>
