<svg xmlns="http://www.w3.org/2000/svg" width="80" height="16" viewBox="0 0 80 16">
    <g fill="none" fill-rule="evenodd">
        <rect width="80" height="16" fill="#EBEDF8" rx="2"/>
        <path fill="#202731" fill-rule="nonzero" d="M7.779 4.264c-.939 0-1.677.332-2.215.998-.538.665-.807 1.583-.807 2.755 0 1.226.259 2.153.776 2.782s1.266.943 2.246.943c.424 0 .834-.042 1.23-.126.397-.085.81-.193 1.238-.325v1.401c-.784.297-1.673.445-2.666.445-1.463 0-2.587-.443-3.37-1.33-.784-.886-1.176-2.154-1.176-3.804 0-1.04.19-1.948.57-2.728.381-.779.931-1.376 1.651-1.79.72-.415 1.566-.623 2.536-.623 1.021 0 1.965.214 2.83.643l-.587 1.36c-.338-.16-.694-.3-1.07-.42-.376-.12-.771-.181-1.186-.181zm12.455-1.258v6.467c0 .738-.158 1.384-.475 1.938-.317.553-.775.98-1.374 1.278-.6.298-1.316.448-2.15.448-1.24 0-2.204-.328-2.892-.985-.688-.656-1.032-1.558-1.032-2.707v-6.44h1.64V9.33c0 .825.192 1.433.575 1.825.383.392.97.588 1.764.588 1.54 0 2.31-.809 2.31-2.427v-6.31h1.634zm8.32 7.28c0 .889-.322 1.586-.965 2.092-.642.506-1.529.759-2.659.759s-2.055-.176-2.775-.527v-1.545c.456.215.94.383 1.452.506.513.123.99.185 1.433.185.647 0 1.124-.123 1.432-.37.307-.245.461-.576.461-.99 0-.374-.141-.69-.424-.95-.282-.26-.866-.568-1.75-.924-.911-.369-1.554-.79-1.927-1.264-.374-.474-.561-1.044-.561-1.71 0-.833.296-1.49.889-1.968.592-.478 1.387-.718 2.385-.718.957 0 1.91.21 2.858.63l-.52 1.332c-.888-.373-1.681-.56-2.379-.56-.528 0-.93.115-1.203.345-.273.23-.41.534-.41.912 0 .26.055.482.164.667.11.185.29.359.54.523.25.164.702.38 1.354.65.733.305 1.271.59 1.613.854.342.264.592.563.752.895.16.333.24.725.24 1.176zM33.94 13h-1.634V4.407h-2.94V3.006h7.513v1.401h-2.94V13zm13.344-5.01c0 1.626-.407 2.89-1.22 3.793-.814.903-1.966 1.354-3.456 1.354-1.509 0-2.667-.448-3.476-1.344-.81-.895-1.214-2.168-1.214-3.817 0-1.65.407-2.917 1.22-3.801.814-.884 1.975-1.326 3.484-1.326 1.485 0 2.634.449 3.445 1.346.811.898 1.217 2.163 1.217 3.794zm-7.63 0c0 1.23.25 2.163.746 2.799.497.635 1.233.953 2.208.953.97 0 1.703-.314 2.198-.943.494-.63.741-1.566.741-2.81 0-1.226-.245-2.155-.734-2.789-.49-.633-1.22-.95-2.191-.95-.98 0-1.72.317-2.219.95-.499.634-.748 1.563-.748 2.79zM53.75 13l-2.898-8.347h-.055c.078 1.24.117 2.402.117 3.487V13H49.43V3.006h2.304l2.775 7.95h.041l2.858-7.95h2.31V13h-1.572V8.058c0-.497.013-1.144.038-1.942.025-.797.046-1.28.065-1.449h-.055L55.193 13H53.75zm14.253 0H62.35V3.006h5.653v1.38h-4.02v2.721h3.767v1.368h-3.766v3.137h4.02V13zm3.794-5.346h1.135c.761 0 1.313-.141 1.654-.424.342-.282.513-.701.513-1.257 0-.565-.184-.971-.554-1.217-.369-.246-.925-.37-1.668-.37h-1.08v3.268zm0 1.354V13h-1.633V3.006h2.823c1.29 0 2.244.241 2.864.724.62.484.93 1.213.93 2.188 0 1.244-.647 2.13-1.942 2.66L77.663 13h-1.86l-2.392-3.992h-1.614z"/>
    </g>
</svg>
