<svg xmlns="http://www.w3.org/2000/svg" width="40" height="40" viewBox="0 0 40 40">
    <g fill="none" fill-rule="evenodd">
        <circle cx="20" cy="20" r="20" fill="#186236"/>
        <path fill="#FFF" d="M16.8 22.29v-4.302c0-.223.119-.428.311-.54L21.7 14.8c.311-.18.7.046.7.404v7.086c0 .344-.279.622-.622.622h-4.356c-.343 0-.622-.278-.622-.622M14 16.371v12.166c0 .343.279.622.622.622h1.556c.343 0 .622-.28.622-.622v-2.203c0-.344.279-.623.622-.623h4.356c.343 0 .622.279.622.623v2.203c0 .343.279.622.622.622h1.556c.343 0 .622-.28.622-.622V10.624c0-.48-.518-.78-.933-.54l-9.956 5.748c-.192.112-.311.317-.311.539"/>
    </g>
</svg>
