<svg xmlns="http://www.w3.org/2000/svg" width="32" height="32" viewBox="0 0 32 32">
    <g fill="none" fill-rule="evenodd">
        <circle cx="16" cy="16" r="16" fill="#3F6DBC"/>
        <path fill="#FFF" fill-rule="nonzero" d="M15.272 18.286c0 .889-.321 1.586-.964 2.092-.642.506-1.529.759-2.66.759-1.13 0-2.054-.176-2.774-.527v-1.545c.455.215.94.383 1.452.506.513.123.99.185 1.432.185.647 0 1.125-.123 1.432-.37.308-.245.462-.576.462-.99 0-.374-.141-.69-.424-.95-.283-.26-.866-.568-1.75-.924-.911-.369-1.554-.79-1.928-1.264-.373-.474-.56-1.044-.56-1.71 0-.833.296-1.49.888-1.968.593-.478 1.388-.718 2.386-.718.957 0 1.91.21 2.858.63l-.52 1.332c-.889-.373-1.682-.56-2.379-.56-.529 0-.93.115-1.203.345-.273.23-.41.534-.41.912 0 .26.055.482.164.667.11.185.29.359.54.523.25.164.702.38 1.353.65.734.305 1.272.59 1.614.854.342.264.592.563.752.895.16.333.239.725.239 1.176zM20.659 21h-1.634v-8.593h-2.94v-1.401h7.513v1.401h-2.94V21z"/>
    </g>
</svg>
